<?xml version="1.0" standalone="no"?>
<!DOCTYPE svg PUBLIC "-//W3C//DTD SVG 20010904//EN"
 "http://www.w3.org/TR/2001/REC-SVG-20010904/DTD/svg10.dtd">
<svg version="1.0" xmlns="http://www.w3.org/2000/svg"
 width="779.000000pt" height="320.000000pt" viewBox="0 0 779.000000 320.000000"
 preserveAspectRatio="xMidYMid meet">
<metadata>
Created by potrace 1.16, written by Peter Selinger 2001-2019
</metadata>
<g transform="translate(0.000000,320.000000) scale(0.100000,-0.100000)"
fill="#000000" stroke="none">
<path d="M0 1600 l0 -1600 3895 0 3895 0 0 1600 0 1600 -3895 0 -3895 0 0
-1600z m2360 18 l0 -523 -145 145 -145 145 0 232 0 233 -233 0 -232 0 -145
145 -145 145 523 0 522 0 0 -522z m-790 -30 l0 -238 238 0 237 0 145 -145 145
-145 -523 0 -522 0 0 522 0 523 140 -140 140 -140 0 -237z m3263 356 c55 -18
57 -22 46 -51 l-8 -22 -43 19 c-75 34 -184 20 -202 -25 -24 -64 13 -117 105
-149 136 -47 183 -92 181 -174 -2 -135 -181 -193 -329 -106 -41 24 -44 33 -26
67 3 4 16 -1 31 -11 115 -79 272 -51 272 48 0 44 -37 77 -127 114 -102 42
-136 66 -158 112 -19 40 -14 91 13 132 37 56 152 78 245 46z m-1927 -226 l139
-232 3 232 2 232 30 0 30 0 0 -276 0 -275 -37 3 c-36 3 -38 5 -168 221 -73
120 -138 224 -144 230 -8 8 -11 -49 -11 -221 l0 -232 -25 0 -25 0 0 275 0 275
33 0 c33 0 36 -3 173 -232z m570 50 c34 -38 54 -91 54 -145 l0 -33 -135 0
-135 0 0 -30 c0 -96 96 -147 197 -105 46 19 45 20 41 -12 -2 -23 -11 -29 -48
-40 -57 -17 -129 -8 -172 21 -117 77 -99 321 27 377 11 5 47 7 79 6 53 -3 62
-7 92 -39z m944 29 c27 -14 35 -53 10 -50 -8 1 -34 8 -57 14 -52 16 -89 2 -99
-36 -10 -39 17 -69 85 -94 74 -27 111 -67 111 -121 0 -80 -81 -131 -175 -110
-66 15 -97 37 -89 64 9 30 9 30 41 7 59 -44 144 -40 161 6 16 48 -1 70 -80
107 -40 18 -80 42 -89 52 -40 47 -28 123 25 155 36 22 118 25 156 6z m875 -27
c109 -105 72 -336 -58 -371 -51 -14 -94 -4 -139 32 l-38 30 0 -111 0 -110 -25
0 -25 0 0 280 0 280 25 0 c20 0 25 -5 25 -27 l0 -26 23 20 c40 37 61 44 120
40 49 -3 62 -8 92 -37z m395 13 c39 -36 52 -102 48 -260 -3 -114 -4 -118 -25
-121 -20 -3 -23 1 -23 29 l0 33 -28 -27 c-42 -41 -83 -51 -142 -37 -65 16 -90
46 -90 110 0 86 51 124 179 136 l71 7 0 34 c0 72 -67 101 -160 68 -54 -19 -52
-19 -48 8 4 28 53 46 130 46 49 1 62 -3 88 -26z m424 16 c4 -3 4 -13 1 -21 -4
-10 -23 -14 -75 -14 -54 1 -74 -3 -96 -20 -54 -40 -69 -70 -69 -139 0 -71 16
-103 76 -143 29 -21 43 -23 96 -19 49 4 63 1 68 -11 7 -20 4 -22 -46 -33 -100
-23 -206 28 -238 114 -17 45 -13 147 8 192 36 78 89 106 193 103 42 -2 79 -6
82 -9z m336 -24 c31 -30 60 -105 60 -157 l0 -28 -141 0 -141 0 7 -32 c23 -104
102 -144 202 -103 46 19 45 20 41 -12 -2 -23 -11 -29 -48 -40 -85 -25 -174 3
-224 70 -18 24 -21 43 -21 126 0 89 2 101 26 137 37 55 80 76 152 71 47 -3 62
-8 87 -32z m-2780 -130 c26 -82 49 -157 52 -165 3 -8 29 60 58 153 l54 167 31
0 31 0 56 -167 55 -168 54 168 c52 162 54 167 81 167 l27 0 -67 -197 -67 -198
-30 0 c-30 0 -30 0 -85 169 l-55 168 -55 -168 c-55 -167 -56 -169 -85 -172
l-31 -3 -62 195 c-34 107 -62 197 -62 201 0 3 12 5 27 3 26 -3 29 -11 73 -153z"/>
<path d="M3319 1753 c-33 -20 -59 -63 -59 -97 l0 -26 106 0 107 0 -6 43 c-11
78 -86 119 -148 80z"/>
<path d="M5145 1761 c-58 -25 -90 -111 -76 -203 13 -81 51 -118 122 -118 45 0
69 17 90 63 35 78 21 196 -28 240 -24 21 -80 30 -108 18z"/>
<path d="M5532 1583 c-82 -40 -56 -143 36 -143 37 0 50 6 78 34 29 29 34 41
34 80 l0 46 -57 0 c-33 0 -72 -8 -91 -17z"/>
<path d="M6294 1751 c-27 -17 -64 -80 -64 -111 0 -6 45 -10 110 -10 l110 0 0
25 c0 34 -24 80 -52 99 -30 21 -66 20 -104 -3z"/>
</g>
</svg>
