<svg data-v-423bf9ae="" xmlns="http://www.w3.org/2000/svg" viewBox="0 0 428 90" class="iconLeft"><!----><!----><!----><g data-v-423bf9ae="" id="5c1e29af-9342-45b4-b96f-3d09e6402c72" fill="#FFFFFF" transform="matrix(4.647560119628906,0,0,4.647560119628906,104.98062896728516,12.53679370880127)"><path d="M2.03 10.50L1.08 10.50L1.08 0.71L2.23 0.71L7.39 9.32L7.39 0.71L8.36 0.71L8.36 10.50L7.10 10.50L2.03 2.07L2.03 10.50ZM15.92 7.18L10.99 7.18L10.99 7.18Q10.98 7.95 11.23 8.55L11.23 8.55L11.23 8.55Q11.33 8.81 11.50 9.06L11.50 9.06L11.50 9.06Q11.68 9.31 11.93 9.50L11.93 9.50L11.93 9.50Q12.18 9.69 12.54 9.81L12.54 9.81L12.54 9.81Q12.89 9.93 13.37 9.93L13.37 9.93L13.37 9.93Q13.78 9.93 14.14 9.82L14.14 9.82L14.14 9.82Q14.50 9.72 14.78 9.59L14.78 9.59L14.78 9.59Q15.12 9.44 15.41 9.24L15.41 9.24L15.43 10.14L15.43 10.14Q15.43 10.14 15.27 10.23L15.27 10.23L15.27 10.23Q15.12 10.32 14.86 10.42L14.86 10.42L14.86 10.42Q14.60 10.51 14.25 10.60L14.25 10.60L14.25 10.60Q13.89 10.68 13.50 10.68L13.50 10.68L13.50 10.68Q12.36 10.68 11.68 10.32L11.68 10.32L11.68 10.32Q10.99 9.97 10.61 9.41L10.61 9.41L10.61 9.41Q10.23 8.85 10.12 8.15L10.12 8.15L10.12 8.15Q10.00 7.46 10.00 6.78L10.00 6.78L10.00 6.78Q10.00 6.13 10.19 5.49L10.19 5.49L10.19 5.49Q10.39 4.84 10.77 4.33L10.77 4.33L10.77 4.33Q11.16 3.82 11.73 3.51L11.73 3.51L11.73 3.51Q12.31 3.19 13.08 3.19L13.08 3.19L13.08 3.19Q13.93 3.19 14.48 3.54L14.48 3.54L14.48 3.54Q15.04 3.89 15.35 4.42L15.35 4.42L15.35 4.42Q15.67 4.96 15.79 5.59L15.79 5.59L15.79 5.59Q15.92 6.22 15.92 6.78L15.92 6.78L15.92 7.18ZM10.98 6.43L14.94 6.43L14.94 6.43Q14.94 5.96 14.83 5.52L14.83 5.52L14.83 5.52Q14.73 5.07 14.50 4.72L14.50 4.72L14.50 4.72Q14.28 4.37 13.92 4.16L13.92 4.16L13.92 4.16Q13.57 3.95 13.08 3.95L13.08 3.95L13.08 3.95Q12.59 3.95 12.20 4.17L12.20 4.17L12.20 4.17Q11.82 4.40 11.54 4.75L11.54 4.75L11.54 4.75Q11.27 5.10 11.12 5.54L11.12 5.54L11.12 5.54Q10.98 5.99 10.98 6.43L10.98 6.43ZM26.47 3.36L26.47 3.36L27.37 3.36L24.98 10.50L23.91 10.50L21.94 4.33L19.94 10.50L18.86 10.50L16.58 3.36L17.54 3.36L19.45 9.53L21.41 3.36L22.48 3.36L24.46 9.53L26.47 3.36ZM32.51 3.82L32.19 4.52L32.19 4.52Q31.78 4.26 31.32 4.10L31.32 4.10L31.32 4.10Q30.86 3.95 30.44 3.95L30.44 3.95L30.44 3.95Q29.83 3.95 29.51 4.22L29.51 4.22L29.51 4.22Q29.18 4.49 29.18 5.08L29.18 5.08L29.18 5.08Q29.18 5.36 29.30 5.56L29.30 5.56L29.30 5.56Q29.43 5.77 29.64 5.92L29.64 5.92L29.64 5.92Q29.85 6.08 30.12 6.20L30.12 6.20L30.12 6.20Q30.39 6.31 30.70 6.41L30.70 6.41L30.70 6.41Q31.07 6.54 31.44 6.69L31.44 6.69L31.44 6.69Q31.81 6.85 32.11 7.09L32.11 7.09L32.11 7.09Q32.41 7.34 32.60 7.70L32.60 7.70L32.60 7.70Q32.79 8.06 32.79 8.61L32.79 8.61L32.79 8.61Q32.79 9.14 32.59 9.53L32.59 9.53L32.59 9.53Q32.38 9.93 32.05 10.18L32.05 10.18L32.05 10.18Q31.72 10.43 31.30 10.55L31.30 10.55L31.30 10.55Q30.87 10.67 30.41 10.67L30.41 10.67L30.41 10.67Q29.74 10.67 29.08 10.44L29.08 10.44L29.08 10.44Q28.42 10.21 27.96 9.72L27.96 9.72L28.27 8.96L28.27 8.96Q28.74 9.41 29.30 9.66L29.30 9.66L29.30 9.66Q29.86 9.91 30.44 9.91L30.44 9.91L30.44 9.91Q31.05 9.91 31.42 9.63L31.42 9.63L31.42 9.63Q31.79 9.34 31.81 8.74L31.81 8.74L31.81 8.74Q31.81 8.41 31.69 8.19L31.69 8.19L31.69 8.19Q31.57 7.97 31.36 7.80L31.36 7.80L31.36 7.80Q31.15 7.64 30.86 7.52L30.86 7.52L30.86 7.52Q30.58 7.39 30.25 7.28L30.25 7.28L30.25 7.28Q29.89 7.15 29.53 7L29.53 7L29.53 7Q29.16 6.85 28.87 6.61L28.87 6.61L28.87 6.61Q28.57 6.37 28.40 6.02L28.40 6.02L28.40 6.02Q28.22 5.67 28.22 5.15L28.22 5.15L28.22 5.15Q28.22 4.63 28.41 4.26L28.41 4.26L28.41 4.26Q28.60 3.88 28.92 3.65L28.92 3.65L28.92 3.65Q29.23 3.42 29.65 3.30L29.65 3.30L29.65 3.30Q30.06 3.19 30.51 3.19L30.51 3.19L30.51 3.19Q31.04 3.19 31.56 3.36L31.56 3.36L31.56 3.36Q32.09 3.53 32.51 3.82L32.51 3.82ZM40.26 1.30L39.94 2.16L39.94 2.16Q39.41 1.81 38.77 1.60L38.77 1.60L38.77 1.60Q38.12 1.39 37.49 1.39L37.49 1.39L37.49 1.39Q36.58 1.39 36.00 1.77L36.00 1.77L36.00 1.77Q35.42 2.16 35.42 3.01L35.42 3.01L35.42 3.01Q35.42 3.46 35.62 3.78L35.62 3.78L35.62 3.78Q35.81 4.10 36.15 4.33L36.15 4.33L36.15 4.33Q36.48 4.56 36.91 4.74L36.91 4.74L36.91 4.74Q37.34 4.91 37.80 5.07L37.80 5.07L37.80 5.07Q38.32 5.24 38.84 5.45L38.84 5.45L38.84 5.45Q39.37 5.66 39.79 5.98L39.79 5.98L39.79 5.98Q40.21 6.30 40.47 6.78L40.47 6.78L40.47 6.78Q40.74 7.25 40.74 7.94L40.74 7.94L40.74 7.94Q40.74 8.65 40.46 9.17L40.46 9.17L40.46 9.17Q40.18 9.69 39.72 10.02L39.72 10.02L39.72 10.02Q39.26 10.36 38.66 10.52L38.66 10.52L38.66 10.52Q38.07 10.68 37.44 10.68L37.44 10.68L37.44 10.68Q36.51 10.68 35.62 10.36L35.62 10.36L35.62 10.36Q34.73 10.04 34.09 9.41L34.09 9.41L34.41 8.60L34.41 8.60Q35.06 9.17 35.86 9.49L35.86 9.49L35.86 9.49Q36.67 9.81 37.49 9.81L37.49 9.81L37.49 9.81Q37.95 9.81 38.37 9.72L38.37 9.72L38.37 9.72Q38.78 9.62 39.10 9.41L39.10 9.41L39.10 9.41Q39.41 9.21 39.59 8.89L39.59 8.89L39.59 8.89Q39.77 8.57 39.77 8.12L39.77 8.12L39.77 8.12Q39.79 7.63 39.55 7.28L39.55 7.28L39.55 7.28Q39.31 6.93 38.93 6.67L38.93 6.67L38.93 6.67Q38.56 6.41 38.08 6.22L38.08 6.22L38.08 6.22Q37.60 6.03 37.14 5.88L37.14 5.88L37.14 5.88Q36.64 5.71 36.16 5.46L36.16 5.46L36.16 5.46Q35.67 5.21 35.29 4.87L35.29 4.87L35.29 4.87Q34.92 4.54 34.69 4.10L34.69 4.10L34.69 4.10Q34.45 3.67 34.45 3.14L34.45 3.14L34.45 3.14Q34.45 2.45 34.72 1.95L34.72 1.95L34.72 1.95Q34.99 1.46 35.42 1.14L35.42 1.14L35.42 1.14Q35.85 0.83 36.42 0.68L36.42 0.68L36.42 0.68Q36.99 0.53 37.58 0.53L37.58 0.53L37.58 0.53Q38.32 0.53 39.02 0.73L39.02 0.73L39.02 0.73Q39.72 0.94 40.26 1.30L40.26 1.30ZM45.74 10.68L45.74 10.68L45.74 10.68Q45.08 10.68 44.64 10.46L44.64 10.46L44.64 10.46Q44.20 10.25 43.92 9.99L43.92 9.99L43.92 9.99Q43.64 9.73 43.52 9.52L43.52 9.52L43.52 9.52Q43.40 9.31 43.40 9.31L43.40 9.31L43.40 13.44L42.52 13.44L42.52 3.36L43.27 3.36L43.40 4.51L43.40 4.52L43.40 4.52Q43.60 4.16 43.92 3.86L43.92 3.86L43.92 3.86Q44.20 3.61 44.63 3.40L44.63 3.40L44.63 3.40Q45.07 3.19 45.74 3.19L45.74 3.19L45.74 3.19Q46.45 3.19 47.00 3.49L47.00 3.49L47.00 3.49Q47.54 3.79 47.92 4.30L47.92 4.30L47.92 4.30Q48.29 4.80 48.48 5.48L48.48 5.48L48.48 5.48Q48.68 6.16 48.68 6.92L48.68 6.92L48.68 6.92Q48.68 7.67 48.52 8.36L48.52 8.36L48.52 8.36Q48.37 9.04 48.02 9.56L48.02 9.56L48.02 9.56Q47.67 10.08 47.11 10.38L47.11 10.38L47.11 10.38Q46.55 10.68 45.74 10.68ZM45.67 3.96L45.67 3.96L45.67 3.96Q45.18 3.96 44.76 4.14L44.76 4.14L44.76 4.14Q44.34 4.31 44.04 4.67L44.04 4.67L44.04 4.67Q43.74 5.03 43.57 5.59L43.57 5.59L43.57 5.59Q43.40 6.16 43.40 6.93L43.40 6.93L43.40 6.93Q43.40 7.78 43.59 8.36L43.59 8.36L43.59 8.36Q43.78 8.93 44.09 9.28L44.09 9.28L44.09 9.28Q44.41 9.63 44.82 9.78L44.82 9.78L44.82 9.78Q45.23 9.93 45.67 9.93L45.67 9.93L45.67 9.93Q46.09 9.93 46.46 9.74L46.46 9.74L46.46 9.74Q46.83 9.56 47.11 9.18L47.11 9.18L47.11 9.18Q47.39 8.81 47.55 8.25L47.55 8.25L47.55 8.25Q47.71 7.69 47.71 6.93L47.71 6.93L47.71 6.93Q47.71 6.17 47.55 5.62L47.55 5.62L47.55 5.62Q47.39 5.07 47.11 4.70L47.11 4.70L47.11 4.70Q46.83 4.33 46.46 4.14L46.46 4.14L46.46 4.14Q46.09 3.96 45.67 3.96ZM53.07 3.19L53.07 3.19L53.07 3.19Q53.20 3.19 53.42 3.21L53.42 3.21L53.42 3.21Q53.65 3.22 53.91 3.30L53.91 3.30L53.91 3.30Q54.17 3.37 54.43 3.54L54.43 3.54L54.43 3.54Q54.70 3.70 54.92 3.98L54.92 3.98L54.92 3.98Q55.13 4.26 55.27 4.68L55.27 4.68L55.27 4.68Q55.41 5.11 55.41 5.73L55.41 5.73L55.41 10.50L54.66 10.50L54.57 9.35L54.57 9.35Q54.57 9.35 54.45 9.56L54.45 9.56L54.45 9.56Q54.32 9.77 54.05 10.02L54.05 10.02L54.05 10.02Q53.79 10.28 53.38 10.48L53.38 10.48L53.38 10.48Q52.96 10.68 52.37 10.68L52.37 10.68L52.37 10.68Q51.21 10.68 50.55 10.12L50.55 10.12L50.55 10.12Q49.88 9.55 49.95 8.46L49.95 8.46L49.95 8.46Q50.02 7.22 51.11 6.66L51.11 6.66L51.11 6.66Q52.21 6.10 54.52 6.15L54.52 6.15L54.52 5.71L54.52 5.71Q54.52 5.00 54.31 4.63L54.31 4.63L54.31 4.63Q54.10 4.27 53.82 4.12L53.82 4.12L53.82 4.12Q53.54 3.98 53.27 3.97L53.27 3.97L53.27 3.97Q53.00 3.96 52.89 3.96L52.89 3.96L52.89 3.96Q52.37 3.96 51.98 4.06L51.98 4.06L51.98 4.06Q51.59 4.16 51.32 4.27L51.32 4.27L51.32 4.27Q51.00 4.41 50.78 4.56L50.78 4.56L50.78 3.68L50.78 3.68Q51.11 3.56 51.48 3.44L51.48 3.44L51.48 3.44Q51.80 3.35 52.21 3.27L52.21 3.27L52.21 3.27Q52.63 3.19 53.07 3.19ZM52.33 9.93L52.33 9.93L52.33 9.93Q53.10 9.93 53.54 9.65L53.54 9.65L53.54 9.65Q53.98 9.38 54.20 8.97L54.20 8.97L54.20 8.97Q54.42 8.55 54.47 8.09L54.47 8.09L54.47 8.09Q54.52 7.62 54.52 7.21L54.52 7.21L54.52 6.92L53.72 6.92L53.72 6.92Q53.44 6.92 52.96 6.96L52.96 6.96L52.96 6.96Q52.49 7.01 52.03 7.17L52.03 7.17L52.03 7.17Q51.58 7.34 51.25 7.64L51.25 7.64L51.25 7.64Q50.92 7.94 50.92 8.46L50.92 8.46L50.92 8.46Q50.92 9.24 51.32 9.58L51.32 9.58L51.32 9.58Q51.72 9.93 52.33 9.93ZM60.47 10.68L60.47 10.68L60.47 10.68Q59.58 10.68 58.92 10.39L58.92 10.39L58.92 10.39Q58.25 10.11 57.81 9.61L57.81 9.61L57.81 9.61Q57.36 9.11 57.13 8.44L57.13 8.44L57.13 8.44Q56.90 7.76 56.90 6.96L56.90 6.96L56.90 6.96Q56.90 6.16 57.13 5.47L57.13 5.47L57.13 5.47Q57.37 4.79 57.83 4.28L57.83 4.28L57.83 4.28Q58.28 3.77 58.95 3.48L58.95 3.48L58.95 3.48Q59.61 3.19 60.47 3.19L60.47 3.19L60.47 3.19Q60.89 3.19 61.24 3.24L61.24 3.24L61.24 3.24Q61.59 3.29 61.84 3.35L61.84 3.35L61.84 3.35Q62.09 3.40 62.23 3.46L62.23 3.46L62.23 3.46Q62.37 3.51 62.37 3.51L62.37 3.51L62.08 4.20L62.08 4.20Q61.33 3.93 60.59 3.96L60.59 3.96L60.59 3.96Q59.84 3.99 59.23 4.33L59.23 4.33L59.23 4.33Q58.62 4.66 58.24 5.31L58.24 5.31L58.24 5.31Q57.86 5.96 57.86 6.96L57.86 6.96L57.86 6.96Q57.86 7.91 58.25 8.55L58.25 8.55L58.25 8.55Q58.65 9.20 59.26 9.53L59.26 9.53L59.26 9.53Q59.86 9.87 60.61 9.90L60.61 9.90L60.61 9.90Q61.36 9.93 62.08 9.65L62.08 9.65L62.38 10.33L62.38 10.33Q62.37 10.33 62.23 10.39L62.23 10.39L62.23 10.39Q62.09 10.44 61.84 10.51L61.84 10.51L61.84 10.51Q61.59 10.57 61.24 10.63L61.24 10.63L61.24 10.63Q60.89 10.68 60.47 10.68ZM69.29 7.18L64.36 7.18L64.36 7.18Q64.34 7.95 64.60 8.55L64.60 8.55L64.60 8.55Q64.69 8.81 64.87 9.06L64.87 9.06L64.87 9.06Q65.04 9.31 65.30 9.50L65.30 9.50L65.30 9.50Q65.55 9.69 65.91 9.81L65.91 9.81L65.91 9.81Q66.26 9.93 66.74 9.93L66.74 9.93L66.74 9.93Q67.14 9.93 67.51 9.82L67.51 9.82L67.51 9.82Q67.87 9.72 68.15 9.59L68.15 9.59L68.15 9.59Q68.49 9.44 68.78 9.24L68.78 9.24L68.80 10.14L68.80 10.14Q68.80 10.14 68.64 10.23L68.64 10.23L68.64 10.23Q68.49 10.32 68.23 10.42L68.23 10.42L68.23 10.42Q67.97 10.51 67.61 10.60L67.61 10.60L67.61 10.60Q67.26 10.68 66.86 10.68L66.86 10.68L66.86 10.68Q65.73 10.68 65.04 10.32L65.04 10.32L65.04 10.32Q64.36 9.97 63.98 9.41L63.98 9.41L63.98 9.41Q63.60 8.85 63.48 8.15L63.48 8.15L63.48 8.15Q63.36 7.46 63.36 6.78L63.36 6.78L63.36 6.78Q63.36 6.13 63.56 5.49L63.56 5.49L63.56 5.49Q63.76 4.84 64.14 4.33L64.14 4.33L64.14 4.33Q64.53 3.82 65.10 3.51L65.10 3.51L65.10 3.51Q65.67 3.19 66.44 3.19L66.44 3.19L66.44 3.19Q67.30 3.19 67.85 3.54L67.85 3.54L67.85 3.54Q68.40 3.89 68.72 4.42L68.72 4.42L68.72 4.42Q69.03 4.96 69.16 5.59L69.16 5.59L69.16 5.59Q69.29 6.22 69.29 6.78L69.29 6.78L69.29 7.18ZM64.34 6.43L68.31 6.43L68.31 6.43Q68.31 5.96 68.20 5.52L68.20 5.52L68.20 5.52Q68.10 5.07 67.87 4.72L67.87 4.72L67.87 4.72Q67.65 4.37 67.29 4.16L67.29 4.16L67.29 4.16Q66.93 3.95 66.44 3.95L66.44 3.95L66.44 3.95Q65.95 3.95 65.57 4.17L65.57 4.17L65.57 4.17Q65.18 4.40 64.91 4.75L64.91 4.75L64.91 4.75Q64.64 5.10 64.49 5.54L64.49 5.54L64.49 5.54Q64.34 5.99 64.34 6.43L64.34 6.43Z"></path></g><!----><g data-v-423bf9ae="" id="c7f9fa7c-e7b8-4373-a76a-cbc4c6e3fd77" transform="matrix(2.8125,0,0,2.8125,0,0)" stroke="none" fill="#BF557B"><path d="M9.382 8.675h13.943v13.943L32 31.293V0H.707zM22.618 23.325H8.675V9.382L0 .707V32h31.293z"></path></g><!----></svg>